<svg id="Group_23" data-name="Group 23" xmlns="http://www.w3.org/2000/svg" xmlns:xlink="http://www.w3.org/1999/xlink" width="55" height="55" viewBox="0 0 55 55">
  <defs>
    <clipPath id="clip-path">
      <rect id="iconfinder_business_finance_money-13_2784281_1" data-name="iconfinder_business_finance_money-13_2784281 1" width="28" height="28" fill="none" style="mix-blend-mode: normal;isolation: isolate"/>
    </clipPath>
  </defs>
  <path id="Ellipse_10" data-name="Ellipse 10" d="M0,27.5A27.5,27.5,0,1,1,27.5,55,27.5,27.5,0,0,1,0,27.5Z" fill="#fff5d9" style="mix-blend-mode: normal;isolation: isolate"/>
  <g id="iconfinder_business_finance_money-13_2784281_1-2" data-name="iconfinder_business_finance_money-13_2784281 1" transform="translate(14 13)" clip-path="url(#clip-path)" style="mix-blend-mode: normal;isolation: isolate">
    <rect id="iconfinder_business_finance_money-13_2784281_1-3" data-name="iconfinder_business_finance_money-13_2784281 1" width="28" height="28" fill="none" style="mix-blend-mode: normal;isolation: isolate"/>
    <g id="_1" data-name="1" transform="translate(3.063 7.219)" style="mix-blend-mode: normal;isolation: isolate">
      <path id="Vector" d="M2.617,12.972A2.62,2.62,0,0,1,0,10.355V2.617A2.62,2.62,0,0,1,2.617,0H15.583A2.62,2.62,0,0,1,18.2,2.617v7.738a2.62,2.62,0,0,1-2.617,2.617ZM1.927,1.927a.978.978,0,0,0-.286.69v7.738a.978.978,0,0,0,.977.977H15.583a.978.978,0,0,0,.977-.977V2.617a.978.978,0,0,0-.977-.977H2.617A.978.978,0,0,0,1.927,1.927Z" transform="translate(0 4.418)" fill="#ffbb38" style="mix-blend-mode: normal;isolation: isolate"/>
      <path id="Vector-2" data-name="Vector" d="M13.7,12.973a.82.82,0,0,1,0-1.641h1.879a.978.978,0,0,0,.976-.977V2.618a.978.978,0,0,0-.976-.977H2.617a.978.978,0,0,0-.977.977V5.238A.82.82,0,1,1,0,5.238V2.618A2.62,2.62,0,0,1,2.617,0H15.583A2.62,2.62,0,0,1,18.2,2.618v7.738a2.62,2.62,0,0,1-2.616,2.617Z" transform="translate(3.676)" fill="#ffbb38" style="mix-blend-mode: normal;isolation: isolate"/>
      <path id="Vector-3" data-name="Vector" d="M.82,4.4A.82.82,0,0,1,0,3.575V.82A.82.82,0,0,1,.82,0H17.38a.82.82,0,0,1,.82.82V3.575a.82.82,0,0,1-.82.82ZM16.559,2.755V1.641H1.641V2.755Z" transform="translate(0 7.132)" fill="#ffbb38" style="mix-blend-mode: normal;isolation: isolate"/>
    </g>
  </g>
</svg>
